<svg xmlns="http://www.w3.org/2000/svg" xmlns:xlink="http://www.w3.org/1999/xlink" width="1920" zoomAndPan="magnify" viewBox="0 0 1440 809.999993" height="1080" preserveAspectRatio="xMidYMid meet" version="1.0"><defs><g/></defs><rect x="-144" width="1728" fill="#ffffff" y="-80.999999" height="971.999992" fill-opacity="1"/><rect x="-144" width="1728" fill="#e3dcd4" y="-80.999999" height="971.999992" fill-opacity="1"/><g fill="#3d3b3a" fill-opacity="1"><g transform="translate(374.859362, 422.999999)"><g><path d="M 2.578125 0 L 2.484375 -2 L 5.703125 -2.75 C 5.765625 -2.914062 5.804688 -3.316406 5.828125 -3.953125 C 5.847656 -4.585938 5.863281 -5.445312 5.875 -6.53125 C 5.894531 -7.625 5.90625 -8.945312 5.90625 -10.5 L 5.90625 -20.40625 C 5.90625 -21.988281 5.894531 -23.332031 5.875 -24.4375 C 5.863281 -25.550781 5.847656 -26.429688 5.828125 -27.078125 C 5.804688 -27.734375 5.765625 -28.113281 5.703125 -28.21875 L 2.484375 -28.953125 L 2.578125 -30.953125 L 13.8125 -30.953125 L 13.921875 -28.953125 L 10.703125 -28.21875 C 10.628906 -28.113281 10.566406 -27.769531 10.515625 -27.1875 C 10.460938 -26.601562 10.425781 -25.765625 10.40625 -24.671875 C 10.394531 -23.585938 10.390625 -22.164062 10.390625 -20.40625 L 10.390625 -10.5 C 10.390625 -8.8125 10.394531 -7.421875 10.40625 -6.328125 C 10.425781 -5.234375 10.460938 -4.394531 10.515625 -3.8125 C 10.566406 -3.238281 10.628906 -2.882812 10.703125 -2.75 L 13.921875 -2 L 13.8125 0 Z M 2.578125 0 "/></g></g></g><g fill="#3d3b3a" fill-opacity="1"><g transform="translate(391.20347, 422.999999)"><g><path d="M 13.5 0 L 1.84375 0 L 1.6875 -1.90625 L 4.953125 -2.6875 C 4.992188 -3.039062 5.019531 -3.421875 5.03125 -3.828125 C 5.050781 -4.234375 5.0625 -4.722656 5.0625 -5.296875 C 5.0625 -5.878906 5.0625 -6.582031 5.0625 -7.40625 C 5.0625 -8.238281 5.0625 -9.25 5.0625 -10.4375 L 5.015625 -19.9375 L 5.015625 -25.953125 C 5.015625 -28.203125 5.363281 -30.132812 6.0625 -31.75 C 6.769531 -33.363281 7.753906 -34.609375 9.015625 -35.484375 C 10.285156 -36.367188 11.765625 -36.8125 13.453125 -36.8125 C 14.859375 -36.8125 16.039062 -36.492188 17 -35.859375 C 17.96875 -35.222656 18.453125 -34.453125 18.453125 -33.546875 C 18.453125 -33.046875 18.296875 -32.644531 17.984375 -32.34375 C 17.671875 -32.050781 17.25 -31.90625 16.71875 -31.90625 C 15.84375 -31.90625 15.015625 -32.289062 14.234375 -33.0625 L 11.8125 -35.390625 L 13.078125 -35.0625 C 11.773438 -35.0625 10.769531 -34.394531 10.0625 -33.0625 C 9.363281 -31.726562 9.015625 -29.847656 9.015625 -27.421875 L 9.015625 -22.578125 L 9.078125 -19.9375 L 9.125 -10.859375 C 9.125 -9.316406 9.140625 -7.78125 9.171875 -6.25 C 9.210938 -4.71875 9.25 -3.53125 9.28125 -2.6875 L 13.609375 -2 Z M 1.21875 -19.9375 L 1.21875 -21.671875 L 5.015625 -22.578125 L 14.875 -22.578125 L 14.875 -19.9375 Z M 1.21875 -19.9375 "/></g></g></g><g fill="#3d3b3a" fill-opacity="1"><g transform="translate(417.30132, 422.999999)"><g><path d="M 11.546875 0.21875 L 2.265625 -19.984375 L -0.21875 -20.78125 L -0.046875 -22.671875 L 10.171875 -22.671875 L 10.28125 -20.78125 L 7.015625 -19.984375 L 14.1875 -3.953125 Z M 25.046875 -22.671875 L 25.203125 -20.78125 L 22.734375 -19.984375 L 13.765625 -1.15625 L 9.546875 7.59375 C 8.773438 9.207031 7.957031 10.347656 7.09375 11.015625 C 6.226562 11.691406 5.234375 12.03125 4.109375 12.03125 C 3.265625 12.03125 2.5625 11.816406 2 11.390625 C 1.4375 10.972656 1.15625 10.425781 1.15625 9.75 C 1.15625 9.226562 1.363281 8.738281 1.78125 8.28125 C 2.207031 7.820312 2.863281 7.453125 3.75 7.171875 L 8.65625 5.703125 L 6.21875 8.328125 L 12.078125 -2.953125 L 12.65625 -3.90625 L 19.515625 -19.984375 L 16.25 -20.78125 L 16.34375 -22.671875 Z M 25.046875 -22.671875 "/></g></g></g><g fill="#3d3b3a" fill-opacity="1"><g transform="translate(442.186542, 422.999999)"><g><path d="M 13.546875 0.421875 C 11.265625 0.421875 9.269531 -0.0664062 7.5625 -1.046875 C 5.863281 -2.035156 4.535156 -3.414062 3.578125 -5.1875 C 2.628906 -6.96875 2.15625 -9 2.15625 -11.28125 C 2.15625 -13.675781 2.675781 -15.75 3.71875 -17.5 C 4.757812 -19.257812 6.164062 -20.628906 7.9375 -21.609375 C 9.707031 -22.597656 11.648438 -23.09375 13.765625 -23.09375 C 15.941406 -23.09375 17.835938 -22.609375 19.453125 -21.640625 C 21.078125 -20.679688 22.34375 -19.332031 23.25 -17.59375 C 24.164062 -15.851562 24.625 -13.820312 24.625 -11.5 C 24.625 -9.28125 24.128906 -7.265625 23.140625 -5.453125 C 22.160156 -3.648438 20.835938 -2.21875 19.171875 -1.15625 C 17.503906 -0.101562 15.628906 0.421875 13.546875 0.421875 Z M 14.078125 -2.0625 C 15.273438 -2.0625 16.3125 -2.421875 17.1875 -3.140625 C 18.070312 -3.859375 18.757812 -4.859375 19.25 -6.140625 C 19.738281 -7.421875 19.984375 -8.890625 19.984375 -10.546875 C 19.984375 -13.566406 19.359375 -16.015625 18.109375 -17.890625 C 16.867188 -19.773438 15.226562 -20.71875 13.1875 -20.71875 C 11.289062 -20.71875 9.769531 -19.9375 8.625 -18.375 C 7.476562 -16.8125 6.90625 -14.710938 6.90625 -12.078125 C 6.90625 -10.109375 7.210938 -8.367188 7.828125 -6.859375 C 8.441406 -5.347656 9.296875 -4.171875 10.390625 -3.328125 C 11.484375 -2.484375 12.710938 -2.0625 14.078125 -2.0625 Z M 14.078125 -2.0625 "/></g></g></g><g fill="#3d3b3a" fill-opacity="1"><g transform="translate(468.96979, 422.999999)"><g><path d="M 24 -3.6875 L 27.3125 -2.84375 L 27.3125 -1.109375 L 20.46875 0.578125 L 19.671875 -0.109375 L 19.71875 -3.421875 L 19.5625 -3.484375 C 18.539062 -2.035156 17.492188 -1.019531 16.421875 -0.4375 C 15.347656 0.132812 14.195312 0.421875 12.96875 0.421875 C 10.613281 0.421875 8.644531 -0.304688 7.0625 -1.765625 C 5.476562 -3.222656 4.6875 -5.410156 4.6875 -8.328125 L 4.6875 -12.875 C 4.6875 -13.820312 4.660156 -14.769531 4.609375 -15.71875 C 4.554688 -16.664062 4.5 -17.613281 4.4375 -18.5625 L 0.84375 -19.296875 L 0.84375 -21.046875 L 8.015625 -23 L 8.96875 -22.15625 C 8.894531 -21.0625 8.835938 -19.898438 8.796875 -18.671875 C 8.765625 -17.441406 8.75 -16.15625 8.75 -14.8125 L 8.703125 -9.015625 C 8.703125 -6.835938 9.210938 -5.28125 10.234375 -4.34375 C 11.253906 -3.414062 12.554688 -2.953125 14.140625 -2.953125 C 15.085938 -2.953125 16.050781 -3.195312 17.03125 -3.6875 C 18.019531 -4.1875 18.882812 -5.03125 19.625 -6.21875 L 19.625 -12.34375 C 19.625 -13.113281 19.613281 -13.875 19.59375 -14.625 C 19.570312 -15.382812 19.539062 -16.109375 19.5 -16.796875 C 19.46875 -17.484375 19.421875 -18.070312 19.359375 -18.5625 L 15.5 -19.296875 L 15.5 -21.046875 L 22.9375 -23 L 23.734375 -22.25 C 23.691406 -21.269531 23.660156 -20.398438 23.640625 -19.640625 C 23.628906 -18.890625 23.625 -18.132812 23.625 -17.375 C 23.625 -16.625 23.625 -15.753906 23.625 -14.765625 L 23.625 -11.015625 C 23.625 -9.085938 23.664062 -7.535156 23.75 -6.359375 C 23.84375 -5.179688 23.925781 -4.289062 24 -3.6875 Z M 24 -3.6875 "/></g></g></g><g fill="#3d3b3a" fill-opacity="1"><g transform="translate(507.721142, 422.999999)"><g><path d="M 13.03125 0.421875 C 11.0625 0.421875 9.25 -0.0234375 7.59375 -0.921875 C 5.9375 -1.816406 4.613281 -3.117188 3.625 -4.828125 C 2.644531 -6.535156 2.15625 -8.566406 2.15625 -10.921875 C 2.15625 -13.203125 2.675781 -15.253906 3.71875 -17.078125 C 4.757812 -18.910156 6.175781 -20.367188 7.96875 -21.453125 C 9.757812 -22.546875 11.796875 -23.09375 14.078125 -23.09375 C 15.628906 -23.09375 16.929688 -22.898438 17.984375 -22.515625 C 19.035156 -22.128906 19.832031 -21.617188 20.375 -20.984375 C 20.925781 -20.359375 21.203125 -19.691406 21.203125 -18.984375 C 21.203125 -18.421875 21.023438 -17.953125 20.671875 -17.578125 C 20.316406 -17.210938 19.828125 -17.03125 19.203125 -17.03125 C 18.597656 -17.03125 18.101562 -17.132812 17.71875 -17.34375 C 17.332031 -17.5625 16.820312 -17.984375 16.1875 -18.609375 L 13.5 -21.3125 L 15.40625 -20.78125 C 14 -21.09375 12.644531 -20.957031 11.34375 -20.375 C 10.039062 -19.800781 8.96875 -18.800781 8.125 -17.375 C 7.28125 -15.945312 6.859375 -14.109375 6.859375 -11.859375 C 6.859375 -9.046875 7.566406 -6.882812 8.984375 -5.375 C 10.410156 -3.863281 12.195312 -3.109375 14.34375 -3.109375 C 15.675781 -3.109375 16.828125 -3.351562 17.796875 -3.84375 C 18.765625 -4.34375 19.6875 -5.132812 20.5625 -6.21875 L 21.984375 -5.015625 C 21.003906 -3.179688 19.757812 -1.816406 18.25 -0.921875 C 16.738281 -0.0234375 15 0.421875 13.03125 0.421875 Z M 13.03125 0.421875 "/></g></g></g><g fill="#3d3b3a" fill-opacity="1"><g transform="translate(530.128387, 422.999999)"><g><path d="M 10.34375 0.421875 C 8.9375 0.421875 7.6875 0.140625 6.59375 -0.421875 C 5.5 -0.984375 4.644531 -1.703125 4.03125 -2.578125 C 3.414062 -3.460938 3.109375 -4.378906 3.109375 -5.328125 C 3.109375 -6.484375 3.484375 -7.445312 4.234375 -8.21875 C 4.992188 -9 6.269531 -9.6875 8.0625 -10.28125 L 16.078125 -12.96875 L 16.078125 -15.65625 C 16.078125 -16.539062 15.8125 -17.34375 15.28125 -18.0625 C 14.757812 -18.78125 14.054688 -19.347656 13.171875 -19.765625 C 12.296875 -20.191406 11.316406 -20.40625 10.234375 -20.40625 C 9.347656 -20.40625 8.75 -20.21875 8.4375 -19.84375 C 8.125 -19.476562 7.929688 -18.753906 7.859375 -17.671875 L 7.75 -15.453125 C 6.488281 -15.171875 5.414062 -15.210938 4.53125 -15.578125 C 3.65625 -15.953125 3.21875 -16.5625 3.21875 -17.40625 C 3.21875 -18 3.476562 -18.59375 4 -19.1875 C 4.53125 -19.789062 5.21875 -20.363281 6.0625 -20.90625 C 6.90625 -21.457031 7.8125 -21.925781 8.78125 -22.3125 C 9.75 -22.695312 10.707031 -22.957031 11.65625 -23.09375 C 14.21875 -23.09375 16.289062 -22.414062 17.875 -21.0625 C 19.457031 -19.707031 20.265625 -17.90625 20.296875 -15.65625 L 20.203125 -6.796875 C 20.203125 -6.171875 20.226562 -5.53125 20.28125 -4.875 C 20.332031 -4.226562 20.410156 -3.742188 20.515625 -3.421875 L 23.890625 -2.796875 L 23.890625 -1.15625 L 21.3125 -0.21875 C 20.8125 0 20.347656 0.160156 19.921875 0.265625 C 19.503906 0.367188 19.15625 0.421875 18.875 0.421875 C 17.789062 0.421875 17.085938 -0.191406 16.765625 -1.421875 L 16.1875 -3.484375 L 16.984375 -3.484375 C 15.816406 -2.179688 14.695312 -1.203125 13.625 -0.546875 C 12.5625 0.0976562 11.46875 0.421875 10.34375 0.421875 Z M 11.765625 -2.6875 C 12.566406 -2.6875 13.328125 -2.867188 14.046875 -3.234375 C 14.773438 -3.609375 15.453125 -4.179688 16.078125 -4.953125 L 16.078125 -10.5 L 10.171875 -8.90625 C 9.328125 -8.695312 8.722656 -8.363281 8.359375 -7.90625 C 7.992188 -7.445312 7.8125 -6.867188 7.8125 -6.171875 C 7.8125 -5.296875 8.203125 -4.492188 8.984375 -3.765625 C 9.773438 -3.046875 10.703125 -2.6875 11.765625 -2.6875 Z M 11.765625 -2.6875 "/></g></g></g><g fill="#3d3b3a" fill-opacity="1"><g transform="translate(555.119055, 422.999999)"><g><path d="M 1.640625 0 L 1.53125 -1.90625 L 4.796875 -2.6875 C 4.835938 -2.9375 4.863281 -3.269531 4.875 -3.6875 C 4.894531 -4.113281 4.921875 -4.695312 4.953125 -5.4375 C 4.992188 -6.175781 5.015625 -7.140625 5.015625 -8.328125 L 5.0625 -12.390625 C 5.0625 -13.554688 5.015625 -14.71875 4.921875 -15.875 C 4.835938 -17.03125 4.742188 -17.925781 4.640625 -18.5625 L 1.265625 -19.296875 L 1.265625 -21.046875 L 8.328125 -23 L 9.234375 -22.15625 L 8.96875 -19.359375 L 9.125 -19.296875 C 10.351562 -20.640625 11.566406 -21.609375 12.765625 -22.203125 C 13.960938 -22.796875 15.265625 -23.09375 16.671875 -23.09375 C 17.960938 -23.09375 19.179688 -22.765625 20.328125 -22.109375 C 21.472656 -21.460938 22.40625 -20.460938 23.125 -19.109375 C 23.84375 -17.765625 24.203125 -16.070312 24.203125 -14.03125 L 24.203125 -8.171875 C 24.203125 -6.910156 24.226562 -5.769531 24.28125 -4.75 C 24.332031 -3.726562 24.410156 -3.039062 24.515625 -2.6875 L 27.796875 -1.90625 L 27.640625 0 L 17.03125 0 L 16.921875 -1.90625 L 19.984375 -2.6875 C 20.023438 -2.96875 20.0625 -3.316406 20.09375 -3.734375 C 20.125 -4.160156 20.148438 -4.707031 20.171875 -5.375 C 20.191406 -6.039062 20.203125 -6.851562 20.203125 -7.8125 L 20.203125 -13.5 C 20.203125 -15.082031 19.925781 -16.335938 19.375 -17.265625 C 18.832031 -18.203125 18.15625 -18.867188 17.34375 -19.265625 C 16.539062 -19.671875 15.71875 -19.875 14.875 -19.875 C 13.707031 -19.875 12.628906 -19.59375 11.640625 -19.03125 C 10.660156 -18.46875 9.804688 -17.660156 9.078125 -16.609375 L 9.078125 -8.703125 C 9.078125 -7.046875 9.101562 -5.722656 9.15625 -4.734375 C 9.207031 -3.753906 9.265625 -3.070312 9.328125 -2.6875 L 12.609375 -1.90625 L 12.453125 0 Z M 1.640625 0 "/></g></g></g><g fill="#3d3b3a" fill-opacity="1"><g transform="translate(594.246074, 422.999999)"><g><path d="M 5.375 0.421875 C 4.144531 0.421875 3.195312 -0.078125 2.53125 -1.078125 C 1.863281 -2.078125 1.53125 -3.367188 1.53125 -4.953125 C 1.53125 -7.421875 1.941406 -9.742188 2.765625 -11.921875 C 3.597656 -14.097656 4.695312 -16.03125 6.0625 -17.71875 C 7.4375 -19.40625 8.941406 -20.722656 10.578125 -21.671875 C 12.210938 -22.617188 13.835938 -23.09375 15.453125 -23.09375 C 16.367188 -23.09375 17.160156 -22.851562 17.828125 -22.375 C 18.492188 -21.90625 19.175781 -21.25 19.875 -20.40625 L 18.9375 -18.671875 C 18.375 -19.304688 17.703125 -19.769531 16.921875 -20.0625 C 16.148438 -20.363281 15.363281 -20.515625 14.5625 -20.515625 C 13.289062 -20.515625 12.128906 -20.082031 11.078125 -19.21875 C 10.023438 -18.363281 9.117188 -17.222656 8.359375 -15.796875 C 7.597656 -14.367188 7.015625 -12.800781 6.609375 -11.09375 C 6.210938 -9.394531 6.015625 -7.664062 6.015625 -5.90625 C 6.015625 -4.988281 6.109375 -4.273438 6.296875 -3.765625 C 6.492188 -3.253906 6.820312 -3 7.28125 -3 C 7.84375 -3 8.578125 -3.4375 9.484375 -4.3125 C 10.398438 -5.195312 11.410156 -6.429688 12.515625 -8.015625 C 13.628906 -9.597656 14.695312 -11.390625 15.71875 -13.390625 C 16.738281 -15.398438 17.617188 -17.53125 18.359375 -19.78125 L 18.609375 -20.828125 L 21.3125 -32.328125 L 17.1875 -32.859375 L 17.515625 -34.328125 L 25.46875 -36.59375 L 26.3125 -35.859375 C 26.03125 -34.835938 25.6875 -33.570312 25.28125 -32.0625 C 24.882812 -30.550781 24.484375 -28.953125 24.078125 -27.265625 C 23.671875 -25.578125 23.253906 -23.925781 22.828125 -22.3125 L 20.46875 -13.03125 C 19.90625 -10.675781 19.445312 -8.570312 19.09375 -6.71875 C 18.738281 -4.875 18.5625 -3.492188 18.5625 -2.578125 C 19.332031 -3.003906 20.066406 -3.539062 20.765625 -4.1875 C 21.472656 -4.84375 22.179688 -5.609375 22.890625 -6.484375 L 24.15625 -4.953125 C 23.269531 -3.898438 22.367188 -2.96875 21.453125 -2.15625 C 20.546875 -1.351562 19.671875 -0.722656 18.828125 -0.265625 C 17.984375 0.191406 17.207031 0.421875 16.5 0.421875 C 15.832031 0.421875 15.332031 0.21875 15 -0.1875 C 14.664062 -0.59375 14.5 -1.128906 14.5 -1.796875 C 14.5 -2.429688 14.585938 -3.273438 14.765625 -4.328125 C 14.941406 -5.378906 15.238281 -6.765625 15.65625 -8.484375 C 16.082031 -10.210938 16.664062 -12.394531 17.40625 -15.03125 L 17.984375 -15.03125 C 16.890625 -11.9375 15.59375 -9.238281 14.09375 -6.9375 C 12.601562 -4.632812 11.101562 -2.832031 9.59375 -1.53125 C 8.082031 -0.226562 6.675781 0.421875 5.375 0.421875 Z M 5.375 0.421875 "/></g></g></g><g fill="#3d3b3a" fill-opacity="1"><g transform="translate(619.658525, 422.999999)"><g><path d="M 16.5625 -19.03125 C 15.820312 -19.03125 15.09375 -18.648438 14.375 -17.890625 C 13.65625 -17.140625 12.957031 -16.140625 12.28125 -14.890625 C 11.613281 -13.648438 10.945312 -12.304688 10.28125 -10.859375 C 9.332031 -8.859375 8.53125 -6.847656 7.875 -4.828125 C 7.226562 -2.804688 6.765625 -1.195312 6.484375 0 L 2.265625 0 C 2.867188 -1.894531 3.441406 -3.851562 3.984375 -5.875 C 4.523438 -7.894531 5.015625 -9.835938 5.453125 -11.703125 C 5.898438 -13.566406 6.234375 -15.238281 6.453125 -16.71875 C 6.679688 -18.195312 6.796875 -19.320312 6.796875 -20.09375 C 6.066406 -19.664062 5.335938 -19.117188 4.609375 -18.453125 C 3.890625 -17.785156 3.179688 -16.960938 2.484375 -15.984375 L 1.265625 -17.671875 C 2.140625 -18.796875 3.035156 -19.757812 3.953125 -20.5625 C 4.867188 -21.375 5.75 -22 6.59375 -22.4375 C 7.4375 -22.875 8.191406 -23.09375 8.859375 -23.09375 C 9.421875 -23.09375 9.847656 -22.90625 10.140625 -22.53125 C 10.441406 -22.164062 10.59375 -21.597656 10.59375 -20.828125 C 10.59375 -20.265625 10.503906 -19.367188 10.328125 -18.140625 C 10.160156 -16.910156 9.800781 -15.238281 9.25 -13.125 C 8.707031 -11.019531 7.859375 -8.296875 6.703125 -4.953125 L 6.4375 -4.953125 C 7.664062 -8.265625 8.765625 -11.070312 9.734375 -13.375 C 10.703125 -15.675781 11.609375 -17.535156 12.453125 -18.953125 C 13.296875 -20.378906 14.140625 -21.425781 14.984375 -22.09375 C 15.828125 -22.757812 16.753906 -23.09375 17.765625 -23.09375 C 18.503906 -23.09375 19.082031 -22.890625 19.5 -22.484375 C 19.925781 -22.085938 20.140625 -21.535156 20.140625 -20.828125 C 20.140625 -20.367188 20.050781 -19.894531 19.875 -19.40625 C 19.707031 -18.914062 19.410156 -18.441406 18.984375 -17.984375 C 18.628906 -18.335938 18.222656 -18.597656 17.765625 -18.765625 C 17.316406 -18.941406 16.914062 -19.03125 16.5625 -19.03125 Z M 16.5625 -19.03125 "/></g></g></g><g fill="#3d3b3a" fill-opacity="1"><g transform="translate(638.48061, 422.999999)"><g><path d="M 9.171875 0.421875 C 7.066406 0.421875 5.300781 -0.296875 3.875 -1.734375 C 2.445312 -3.179688 1.734375 -5.148438 1.734375 -7.640625 C 1.734375 -9.546875 2.054688 -11.410156 2.703125 -13.234375 C 3.359375 -15.066406 4.265625 -16.71875 5.421875 -18.1875 C 6.585938 -19.664062 7.953125 -20.851562 9.515625 -21.75 C 11.078125 -22.644531 12.773438 -23.09375 14.609375 -23.09375 C 16.328125 -23.09375 17.617188 -22.6875 18.484375 -21.875 C 19.347656 -21.070312 19.78125 -20.144531 19.78125 -19.09375 C 19.78125 -18.144531 19.488281 -17.210938 18.90625 -16.296875 C 18.320312 -15.378906 17.441406 -14.476562 16.265625 -13.59375 C 15.085938 -12.71875 13.601562 -11.84375 11.8125 -10.96875 C 10.019531 -10.09375 7.910156 -9.210938 5.484375 -8.328125 L 5.484375 -10.59375 C 7.660156 -11.4375 9.503906 -12.269531 11.015625 -13.09375 C 12.535156 -13.925781 13.679688 -14.800781 14.453125 -15.71875 C 15.222656 -16.632812 15.609375 -17.582031 15.609375 -18.5625 C 15.609375 -19.300781 15.378906 -19.851562 14.921875 -20.21875 C 14.460938 -20.59375 13.863281 -20.78125 13.125 -20.78125 C 11.894531 -20.78125 10.742188 -20.257812 9.671875 -19.21875 C 8.597656 -18.1875 7.738281 -16.765625 7.09375 -14.953125 C 6.445312 -13.140625 6.125 -11.054688 6.125 -8.703125 C 6.125 -6.867188 6.550781 -5.441406 7.40625 -4.421875 C 8.269531 -3.410156 9.367188 -2.90625 10.703125 -2.90625 C 11.546875 -2.90625 12.546875 -3.191406 13.703125 -3.765625 C 14.867188 -4.347656 15.976562 -5.34375 17.03125 -6.75 L 18.296875 -5.015625 C 17.035156 -3.285156 15.601562 -1.945312 14 -1 C 12.40625 -0.0507812 10.796875 0.421875 9.171875 0.421875 Z M 9.171875 0.421875 "/></g></g></g><g fill="#3d3b3a" fill-opacity="1"><g transform="translate(658.937107, 422.999999)"><g><path d="M 5.328125 0.421875 C 4.128906 0.421875 3.195312 -0.078125 2.53125 -1.078125 C 1.863281 -2.078125 1.53125 -3.367188 1.53125 -4.953125 C 1.53125 -7.453125 1.941406 -9.78125 2.765625 -11.9375 C 3.597656 -14.101562 4.695312 -16.03125 6.0625 -17.71875 C 7.4375 -19.40625 8.941406 -20.722656 10.578125 -21.671875 C 12.210938 -22.617188 13.820312 -23.09375 15.40625 -23.09375 C 16.351562 -23.09375 17.175781 -22.851562 17.875 -22.375 C 18.582031 -21.90625 19.285156 -21.25 19.984375 -20.40625 L 18.9375 -18.71875 C 18.332031 -19.351562 17.644531 -19.8125 16.875 -20.09375 C 16.101562 -20.375 15.296875 -20.515625 14.453125 -20.515625 C 13.328125 -20.515625 12.253906 -20.117188 11.234375 -19.328125 C 10.210938 -18.535156 9.316406 -17.460938 8.546875 -16.109375 C 7.773438 -14.753906 7.160156 -13.195312 6.703125 -11.4375 C 6.242188 -9.6875 6.015625 -7.84375 6.015625 -5.90625 C 6.015625 -4.988281 6.109375 -4.273438 6.296875 -3.765625 C 6.492188 -3.253906 6.820312 -3 7.28125 -3 C 7.84375 -3 8.585938 -3.4375 9.515625 -4.3125 C 10.453125 -5.195312 11.460938 -6.429688 12.546875 -8.015625 C 13.640625 -9.597656 14.695312 -11.390625 15.71875 -13.390625 C 16.738281 -15.398438 17.617188 -17.53125 18.359375 -19.78125 L 18.875 -20.828125 L 20.890625 -22.671875 L 23.15625 -22.671875 C 22.550781 -20.773438 21.96875 -18.816406 21.40625 -16.796875 C 20.84375 -14.773438 20.347656 -12.832031 19.921875 -10.96875 C 19.503906 -9.101562 19.171875 -7.441406 18.921875 -5.984375 C 18.679688 -4.523438 18.5625 -3.390625 18.5625 -2.578125 C 19.332031 -3.003906 20.066406 -3.539062 20.765625 -4.1875 C 21.472656 -4.84375 22.179688 -5.609375 22.890625 -6.484375 L 24.15625 -4.953125 C 23.269531 -3.898438 22.367188 -2.96875 21.453125 -2.15625 C 20.546875 -1.351562 19.671875 -0.722656 18.828125 -0.265625 C 17.984375 0.191406 17.191406 0.421875 16.453125 0.421875 C 15.816406 0.421875 15.332031 0.21875 15 -0.1875 C 14.664062 -0.59375 14.5 -1.128906 14.5 -1.796875 C 14.5 -2.429688 14.585938 -3.273438 14.765625 -4.328125 C 14.941406 -5.378906 15.238281 -6.765625 15.65625 -8.484375 C 16.082031 -10.210938 16.664062 -12.394531 17.40625 -15.03125 L 17.984375 -15.03125 C 16.890625 -11.9375 15.59375 -9.238281 14.09375 -6.9375 C 12.601562 -4.632812 11.101562 -2.832031 9.59375 -1.53125 C 8.082031 -0.226562 6.660156 0.421875 5.328125 0.421875 Z M 5.328125 0.421875 "/></g></g></g><g fill="#3d3b3a" fill-opacity="1"><g transform="translate(684.349558, 422.999999)"><g><path d="M 29.953125 0.421875 C 29.253906 0.421875 28.726562 0.21875 28.375 -0.1875 C 28.019531 -0.59375 27.84375 -1.128906 27.84375 -1.796875 C 27.84375 -2.285156 27.984375 -3.09375 28.265625 -4.21875 C 28.546875 -5.34375 28.894531 -6.625 29.3125 -8.0625 C 29.738281 -9.507812 30.15625 -10.953125 30.5625 -12.390625 C 30.96875 -13.835938 31.3125 -15.128906 31.59375 -16.265625 C 31.875 -17.410156 32.015625 -18.226562 32.015625 -18.71875 C 32.015625 -19.425781 31.695312 -19.78125 31.0625 -19.78125 C 30.394531 -19.78125 29.617188 -19.375 28.734375 -18.5625 C 27.859375 -17.75 26.925781 -16.648438 25.9375 -15.265625 C 24.957031 -13.878906 24 -12.320312 23.0625 -10.59375 C 22.132812 -8.875 21.300781 -7.097656 20.5625 -5.265625 C 19.820312 -3.441406 19.257812 -1.6875 18.875 0 L 14.875 0 C 15.226562 -1.195312 15.613281 -2.53125 16.03125 -4 C 16.457031 -5.476562 16.867188 -6.984375 17.265625 -8.515625 C 17.671875 -10.046875 18.03125 -11.503906 18.34375 -12.890625 C 18.664062 -14.285156 18.921875 -15.5 19.109375 -16.53125 C 19.304688 -17.570312 19.40625 -18.300781 19.40625 -18.71875 C 19.40625 -19.425781 19.085938 -19.78125 18.453125 -19.78125 C 17.828125 -19.78125 17.0625 -19.375 16.15625 -18.5625 C 15.257812 -17.75 14.316406 -16.648438 13.328125 -15.265625 C 12.347656 -13.878906 11.398438 -12.320312 10.484375 -10.59375 C 9.578125 -8.875 8.753906 -7.097656 8.015625 -5.265625 C 7.273438 -3.441406 6.710938 -1.6875 6.328125 0 L 2.265625 0 C 2.867188 -1.894531 3.453125 -3.851562 4.015625 -5.875 C 4.578125 -7.894531 5.066406 -9.835938 5.484375 -11.703125 C 5.910156 -13.566406 6.242188 -15.238281 6.484375 -16.71875 C 6.734375 -18.195312 6.859375 -19.320312 6.859375 -20.09375 C 6.085938 -19.664062 5.347656 -19.117188 4.640625 -18.453125 C 3.941406 -17.785156 3.238281 -16.960938 2.53125 -15.984375 L 1.3125 -17.671875 C 2.195312 -18.796875 3.085938 -19.757812 3.984375 -20.5625 C 4.878906 -21.375 5.753906 -22 6.609375 -22.4375 C 7.472656 -22.875 8.257812 -23.09375 8.96875 -23.09375 C 9.632812 -23.09375 10.113281 -22.890625 10.40625 -22.484375 C 10.707031 -22.085938 10.859375 -21.535156 10.859375 -20.828125 C 10.859375 -20.265625 10.769531 -19.4375 10.59375 -18.34375 C 10.425781 -17.257812 10.140625 -15.851562 9.734375 -14.125 C 9.328125 -12.40625 8.753906 -10.242188 8.015625 -7.640625 L 7.484375 -7.640625 C 8.148438 -9.578125 8.972656 -11.457031 9.953125 -13.28125 C 10.941406 -15.113281 12 -16.757812 13.125 -18.21875 C 14.25 -19.675781 15.414062 -20.851562 16.625 -21.75 C 17.84375 -22.644531 19.050781 -23.09375 20.25 -23.09375 C 21.269531 -23.09375 22.078125 -22.800781 22.671875 -22.21875 C 23.273438 -21.644531 23.578125 -20.847656 23.578125 -19.828125 C 23.578125 -19.191406 23.460938 -18.335938 23.234375 -17.265625 C 23.003906 -16.191406 22.648438 -14.863281 22.171875 -13.28125 C 21.703125 -11.707031 21.078125 -9.828125 20.296875 -7.640625 L 20.046875 -7.640625 C 20.742188 -9.546875 21.578125 -11.410156 22.546875 -13.234375 C 23.515625 -15.066406 24.566406 -16.726562 25.703125 -18.21875 C 26.847656 -19.71875 28.023438 -20.90625 29.234375 -21.78125 C 30.453125 -22.65625 31.640625 -23.09375 32.796875 -23.09375 C 33.859375 -23.09375 34.6875 -22.800781 35.28125 -22.21875 C 35.875 -21.644531 36.171875 -20.847656 36.171875 -19.828125 C 36.171875 -19.265625 36.039062 -18.398438 35.78125 -17.234375 C 35.519531 -16.078125 35.175781 -14.78125 34.75 -13.34375 C 34.332031 -11.90625 33.910156 -10.460938 33.484375 -9.015625 C 33.066406 -7.578125 32.71875 -6.285156 32.4375 -5.140625 C 32.15625 -3.992188 32.015625 -3.140625 32.015625 -2.578125 C 32.785156 -3.003906 33.519531 -3.539062 34.21875 -4.1875 C 34.925781 -4.84375 35.628906 -5.609375 36.328125 -6.484375 L 37.59375 -4.953125 C 36.71875 -3.898438 35.832031 -2.96875 34.9375 -2.15625 C 34.039062 -1.351562 33.160156 -0.722656 32.296875 -0.265625 C 31.441406 0.191406 30.660156 0.421875 29.953125 0.421875 Z M 29.953125 0.421875 "/></g></g></g><g fill="#3d3b3a" fill-opacity="1"><g transform="translate(733.961834, 422.999999)"><g><path d="M 5.21875 0.421875 C 4.519531 0.421875 3.984375 0.21875 3.609375 -0.1875 C 3.242188 -0.59375 3.0625 -1.164062 3.0625 -1.90625 C 3.0625 -2.394531 3.203125 -3.234375 3.484375 -4.421875 C 3.765625 -5.617188 4.113281 -6.984375 4.53125 -8.515625 C 4.957031 -10.046875 5.378906 -11.582031 5.796875 -13.125 C 6.222656 -14.675781 6.582031 -16.078125 6.875 -17.328125 C 7.175781 -18.578125 7.328125 -19.484375 7.328125 -20.046875 C 6.585938 -19.648438 5.859375 -19.117188 5.140625 -18.453125 C 4.421875 -17.785156 3.707031 -16.960938 3 -15.984375 L 1.734375 -17.671875 C 2.617188 -18.753906 3.515625 -19.703125 4.421875 -20.515625 C 5.335938 -21.328125 6.21875 -21.957031 7.0625 -22.40625 C 7.90625 -22.863281 8.679688 -23.09375 9.390625 -23.09375 C 10.085938 -23.09375 10.617188 -22.878906 10.984375 -22.453125 C 11.359375 -22.035156 11.546875 -21.441406 11.546875 -20.671875 C 11.546875 -20.179688 11.40625 -19.328125 11.125 -18.109375 C 10.84375 -16.898438 10.488281 -15.519531 10.0625 -13.96875 C 9.644531 -12.425781 9.222656 -10.890625 8.796875 -9.359375 C 8.378906 -7.828125 8.019531 -6.445312 7.71875 -5.21875 C 7.425781 -3.988281 7.28125 -3.109375 7.28125 -2.578125 C 8.050781 -3.003906 8.785156 -3.539062 9.484375 -4.1875 C 10.191406 -4.84375 10.898438 -5.609375 11.609375 -6.484375 L 12.875 -4.953125 C 11.988281 -3.898438 11.085938 -2.96875 10.171875 -2.15625 C 9.265625 -1.351562 8.390625 -0.722656 7.546875 -0.265625 C 6.703125 0.191406 5.925781 0.421875 5.21875 0.421875 Z M 10.96875 -28.953125 C 10.257812 -28.953125 9.660156 -29.1875 9.171875 -29.65625 C 8.679688 -30.132812 8.4375 -30.726562 8.4375 -31.4375 C 8.4375 -32.207031 8.601562 -32.863281 8.9375 -33.40625 C 9.269531 -33.945312 9.71875 -34.375 10.28125 -34.6875 C 10.84375 -35.007812 11.421875 -35.171875 12.015625 -35.171875 C 12.722656 -35.171875 13.300781 -34.941406 13.75 -34.484375 C 14.207031 -34.023438 14.4375 -33.445312 14.4375 -32.75 C 14.4375 -31.976562 14.28125 -31.300781 13.96875 -30.71875 C 13.65625 -30.132812 13.234375 -29.691406 12.703125 -29.390625 C 12.171875 -29.097656 11.59375 -28.953125 10.96875 -28.953125 Z M 10.96875 -28.953125 "/></g></g></g><g fill="#3d3b3a" fill-opacity="1"><g transform="translate(748.566085, 422.999999)"><g><path d="M 14.875 -5.859375 C 13.21875 -3.390625 11.613281 -1.722656 10.0625 -0.859375 C 8.519531 -0.00390625 7.171875 0.421875 6.015625 0.421875 C 4.890625 0.421875 4.007812 0.0976562 3.375 -0.546875 C 2.738281 -1.203125 2.421875 -2.054688 2.421875 -3.109375 C 2.421875 -3.492188 2.460938 -3.929688 2.546875 -4.421875 C 2.640625 -4.921875 2.757812 -5.519531 2.90625 -6.21875 L 6.171875 -19.9375 L 2.484375 -19.9375 L 2.75 -21.046875 L 10.921875 -27.265625 L 11.921875 -27.265625 L 10.390625 -21.203125 L 7.0625 -6.796875 C 6.925781 -6.171875 6.820312 -5.671875 6.75 -5.296875 C 6.675781 -4.929688 6.640625 -4.609375 6.640625 -4.328125 C 6.640625 -3.335938 7.082031 -2.84375 7.96875 -2.84375 C 8.53125 -2.84375 9.273438 -3.1875 10.203125 -3.875 C 11.140625 -4.5625 12.289062 -5.800781 13.65625 -7.59375 Z M 8.234375 -19.9375 L 8.8125 -22.578125 L 16.5 -22.578125 L 15.984375 -19.9375 Z M 8.234375 -19.9375 "/></g></g></g><g fill="#3d3b3a" fill-opacity="1"><g transform="translate(764.488409, 422.999999)"><g><path d="M -0.640625 9.234375 L -1.53125 7.8125 C -0.125 6.851562 0.953125 5.863281 1.703125 4.84375 C 2.460938 3.832031 2.84375 2.867188 2.84375 1.953125 C 2.84375 1.421875 2.753906 0.96875 2.578125 0.59375 C 2.410156 0.226562 2.21875 -0.109375 2 -0.421875 C 1.789062 -0.734375 1.609375 -1.066406 1.453125 -1.421875 C 1.296875 -1.773438 1.21875 -2.195312 1.21875 -2.6875 C 1.21875 -3.53125 1.539062 -4.257812 2.1875 -4.875 C 2.84375 -5.488281 3.644531 -5.796875 4.59375 -5.796875 C 5.46875 -5.796875 6.175781 -5.5 6.71875 -4.90625 C 7.269531 -4.3125 7.546875 -3.519531 7.546875 -2.53125 C 7.546875 -1.226562 7.175781 0.175781 6.4375 1.6875 C 5.695312 3.195312 4.71875 4.609375 3.5 5.921875 C 2.289062 7.242188 0.910156 8.347656 -0.640625 9.234375 Z M -0.640625 9.234375 "/></g></g></g><g fill="#3d3b3a" fill-opacity="1"><g transform="translate(786.843717, 422.999999)"><g><path d="M 11.546875 0.21875 L 2.265625 -19.984375 L -0.21875 -20.78125 L -0.046875 -22.671875 L 10.171875 -22.671875 L 10.28125 -20.78125 L 7.015625 -19.984375 L 14.1875 -3.953125 Z M 25.046875 -22.671875 L 25.203125 -20.78125 L 22.734375 -19.984375 L 13.765625 -1.15625 L 9.546875 7.59375 C 8.773438 9.207031 7.957031 10.347656 7.09375 11.015625 C 6.226562 11.691406 5.234375 12.03125 4.109375 12.03125 C 3.265625 12.03125 2.5625 11.816406 2 11.390625 C 1.4375 10.972656 1.15625 10.425781 1.15625 9.75 C 1.15625 9.226562 1.363281 8.738281 1.78125 8.28125 C 2.207031 7.820312 2.863281 7.453125 3.75 7.171875 L 8.65625 5.703125 L 6.21875 8.328125 L 12.078125 -2.953125 L 12.65625 -3.90625 L 19.515625 -19.984375 L 16.25 -20.78125 L 16.34375 -22.671875 Z M 25.046875 -22.671875 "/></g></g></g><g fill="#3d3b3a" fill-opacity="1"><g transform="translate(811.728939, 422.999999)"><g><path d="M 13.546875 0.421875 C 11.265625 0.421875 9.269531 -0.0664062 7.5625 -1.046875 C 5.863281 -2.035156 4.535156 -3.414062 3.578125 -5.1875 C 2.628906 -6.96875 2.15625 -9 2.15625 -11.28125 C 2.15625 -13.675781 2.675781 -15.75 3.71875 -17.5 C 4.757812 -19.257812 6.164062 -20.628906 7.9375 -21.609375 C 9.707031 -22.597656 11.648438 -23.09375 13.765625 -23.09375 C 15.941406 -23.09375 17.835938 -22.609375 19.453125 -21.640625 C 21.078125 -20.679688 22.34375 -19.332031 23.25 -17.59375 C 24.164062 -15.851562 24.625 -13.820312 24.625 -11.5 C 24.625 -9.28125 24.128906 -7.265625 23.140625 -5.453125 C 22.160156 -3.648438 20.835938 -2.21875 19.171875 -1.15625 C 17.503906 -0.101562 15.628906 0.421875 13.546875 0.421875 Z M 14.078125 -2.0625 C 15.273438 -2.0625 16.3125 -2.421875 17.1875 -3.140625 C 18.070312 -3.859375 18.757812 -4.859375 19.25 -6.140625 C 19.738281 -7.421875 19.984375 -8.890625 19.984375 -10.546875 C 19.984375 -13.566406 19.359375 -16.015625 18.109375 -17.890625 C 16.867188 -19.773438 15.226562 -20.71875 13.1875 -20.71875 C 11.289062 -20.71875 9.769531 -19.9375 8.625 -18.375 C 7.476562 -16.8125 6.90625 -14.710938 6.90625 -12.078125 C 6.90625 -10.109375 7.210938 -8.367188 7.828125 -6.859375 C 8.441406 -5.347656 9.296875 -4.171875 10.390625 -3.328125 C 11.484375 -2.484375 12.710938 -2.0625 14.078125 -2.0625 Z M 14.078125 -2.0625 "/></g></g></g><g fill="#3d3b3a" fill-opacity="1"><g transform="translate(838.512187, 422.999999)"><g><path d="M 24 -3.6875 L 27.3125 -2.84375 L 27.3125 -1.109375 L 20.46875 0.578125 L 19.671875 -0.109375 L 19.71875 -3.421875 L 19.5625 -3.484375 C 18.539062 -2.035156 17.492188 -1.019531 16.421875 -0.4375 C 15.347656 0.132812 14.195312 0.421875 12.96875 0.421875 C 10.613281 0.421875 8.644531 -0.304688 7.0625 -1.765625 C 5.476562 -3.222656 4.6875 -5.410156 4.6875 -8.328125 L 4.6875 -12.875 C 4.6875 -13.820312 4.660156 -14.769531 4.609375 -15.71875 C 4.554688 -16.664062 4.5 -17.613281 4.4375 -18.5625 L 0.84375 -19.296875 L 0.84375 -21.046875 L 8.015625 -23 L 8.96875 -22.15625 C 8.894531 -21.0625 8.835938 -19.898438 8.796875 -18.671875 C 8.765625 -17.441406 8.75 -16.15625 8.75 -14.8125 L 8.703125 -9.015625 C 8.703125 -6.835938 9.210938 -5.28125 10.234375 -4.34375 C 11.253906 -3.414062 12.554688 -2.953125 14.140625 -2.953125 C 15.085938 -2.953125 16.050781 -3.195312 17.03125 -3.6875 C 18.019531 -4.1875 18.882812 -5.03125 19.625 -6.21875 L 19.625 -12.34375 C 19.625 -13.113281 19.613281 -13.875 19.59375 -14.625 C 19.570312 -15.382812 19.539062 -16.109375 19.5 -16.796875 C 19.46875 -17.484375 19.421875 -18.070312 19.359375 -18.5625 L 15.5 -19.296875 L 15.5 -21.046875 L 22.9375 -23 L 23.734375 -22.25 C 23.691406 -21.269531 23.660156 -20.398438 23.640625 -19.640625 C 23.628906 -18.890625 23.625 -18.132812 23.625 -17.375 C 23.625 -16.625 23.625 -15.753906 23.625 -14.765625 L 23.625 -11.015625 C 23.625 -9.085938 23.664062 -7.535156 23.75 -6.359375 C 23.84375 -5.179688 23.925781 -4.289062 24 -3.6875 Z M 24 -3.6875 "/></g></g></g><g fill="#3d3b3a" fill-opacity="1"><g transform="translate(877.263539, 422.999999)"><g><path d="M 13.03125 0.421875 C 11.0625 0.421875 9.25 -0.0234375 7.59375 -0.921875 C 5.9375 -1.816406 4.613281 -3.117188 3.625 -4.828125 C 2.644531 -6.535156 2.15625 -8.566406 2.15625 -10.921875 C 2.15625 -13.203125 2.675781 -15.253906 3.71875 -17.078125 C 4.757812 -18.910156 6.175781 -20.367188 7.96875 -21.453125 C 9.757812 -22.546875 11.796875 -23.09375 14.078125 -23.09375 C 15.628906 -23.09375 16.929688 -22.898438 17.984375 -22.515625 C 19.035156 -22.128906 19.832031 -21.617188 20.375 -20.984375 C 20.925781 -20.359375 21.203125 -19.691406 21.203125 -18.984375 C 21.203125 -18.421875 21.023438 -17.953125 20.671875 -17.578125 C 20.316406 -17.210938 19.828125 -17.03125 19.203125 -17.03125 C 18.597656 -17.03125 18.101562 -17.132812 17.71875 -17.34375 C 17.332031 -17.5625 16.820312 -17.984375 16.1875 -18.609375 L 13.5 -21.3125 L 15.40625 -20.78125 C 14 -21.09375 12.644531 -20.957031 11.34375 -20.375 C 10.039062 -19.800781 8.96875 -18.800781 8.125 -17.375 C 7.28125 -15.945312 6.859375 -14.109375 6.859375 -11.859375 C 6.859375 -9.046875 7.566406 -6.882812 8.984375 -5.375 C 10.410156 -3.863281 12.195312 -3.109375 14.34375 -3.109375 C 15.675781 -3.109375 16.828125 -3.351562 17.796875 -3.84375 C 18.765625 -4.34375 19.6875 -5.132812 20.5625 -6.21875 L 21.984375 -5.015625 C 21.003906 -3.179688 19.757812 -1.816406 18.25 -0.921875 C 16.738281 -0.0234375 15 0.421875 13.03125 0.421875 Z M 13.03125 0.421875 "/></g></g></g><g fill="#3d3b3a" fill-opacity="1"><g transform="translate(899.670784, 422.999999)"><g><path d="M 10.34375 0.421875 C 8.9375 0.421875 7.6875 0.140625 6.59375 -0.421875 C 5.5 -0.984375 4.644531 -1.703125 4.03125 -2.578125 C 3.414062 -3.460938 3.109375 -4.378906 3.109375 -5.328125 C 3.109375 -6.484375 3.484375 -7.445312 4.234375 -8.21875 C 4.992188 -9 6.269531 -9.6875 8.0625 -10.28125 L 16.078125 -12.96875 L 16.078125 -15.65625 C 16.078125 -16.539062 15.8125 -17.34375 15.28125 -18.0625 C 14.757812 -18.78125 14.054688 -19.347656 13.171875 -19.765625 C 12.296875 -20.191406 11.316406 -20.40625 10.234375 -20.40625 C 9.347656 -20.40625 8.75 -20.21875 8.4375 -19.84375 C 8.125 -19.476562 7.929688 -18.753906 7.859375 -17.671875 L 7.75 -15.453125 C 6.488281 -15.171875 5.414062 -15.210938 4.53125 -15.578125 C 3.65625 -15.953125 3.21875 -16.5625 3.21875 -17.40625 C 3.21875 -18 3.476562 -18.59375 4 -19.1875 C 4.53125 -19.789062 5.21875 -20.363281 6.0625 -20.90625 C 6.90625 -21.457031 7.8125 -21.925781 8.78125 -22.3125 C 9.75 -22.695312 10.707031 -22.957031 11.65625 -23.09375 C 14.21875 -23.09375 16.289062 -22.414062 17.875 -21.0625 C 19.457031 -19.707031 20.265625 -17.90625 20.296875 -15.65625 L 20.203125 -6.796875 C 20.203125 -6.171875 20.226562 -5.53125 20.28125 -4.875 C 20.332031 -4.226562 20.410156 -3.742188 20.515625 -3.421875 L 23.890625 -2.796875 L 23.890625 -1.15625 L 21.3125 -0.21875 C 20.8125 0 20.347656 0.160156 19.921875 0.265625 C 19.503906 0.367188 19.15625 0.421875 18.875 0.421875 C 17.789062 0.421875 17.085938 -0.191406 16.765625 -1.421875 L 16.1875 -3.484375 L 16.984375 -3.484375 C 15.816406 -2.179688 14.695312 -1.203125 13.625 -0.546875 C 12.5625 0.0976562 11.46875 0.421875 10.34375 0.421875 Z M 11.765625 -2.6875 C 12.566406 -2.6875 13.328125 -2.867188 14.046875 -3.234375 C 14.773438 -3.609375 15.453125 -4.179688 16.078125 -4.953125 L 16.078125 -10.5 L 10.171875 -8.90625 C 9.328125 -8.695312 8.722656 -8.363281 8.359375 -7.90625 C 7.992188 -7.445312 7.8125 -6.867188 7.8125 -6.171875 C 7.8125 -5.296875 8.203125 -4.492188 8.984375 -3.765625 C 9.773438 -3.046875 10.703125 -2.6875 11.765625 -2.6875 Z M 11.765625 -2.6875 "/></g></g></g><g fill="#3d3b3a" fill-opacity="1"><g transform="translate(924.661452, 422.999999)"><g><path d="M 1.640625 0 L 1.53125 -1.90625 L 4.796875 -2.6875 C 4.835938 -2.9375 4.863281 -3.269531 4.875 -3.6875 C 4.894531 -4.113281 4.921875 -4.695312 4.953125 -5.4375 C 4.992188 -6.175781 5.015625 -7.140625 5.015625 -8.328125 L 5.0625 -12.390625 C 5.0625 -13.554688 5.015625 -14.71875 4.921875 -15.875 C 4.835938 -17.03125 4.742188 -17.925781 4.640625 -18.5625 L 1.265625 -19.296875 L 1.265625 -21.046875 L 8.328125 -23 L 9.234375 -22.15625 L 8.96875 -19.359375 L 9.125 -19.296875 C 10.351562 -20.640625 11.566406 -21.609375 12.765625 -22.203125 C 13.960938 -22.796875 15.265625 -23.09375 16.671875 -23.09375 C 17.960938 -23.09375 19.179688 -22.765625 20.328125 -22.109375 C 21.472656 -21.460938 22.40625 -20.460938 23.125 -19.109375 C 23.84375 -17.765625 24.203125 -16.070312 24.203125 -14.03125 L 24.203125 -8.171875 C 24.203125 -6.910156 24.226562 -5.769531 24.28125 -4.75 C 24.332031 -3.726562 24.410156 -3.039062 24.515625 -2.6875 L 27.796875 -1.90625 L 27.640625 0 L 17.03125 0 L 16.921875 -1.90625 L 19.984375 -2.6875 C 20.023438 -2.96875 20.0625 -3.316406 20.09375 -3.734375 C 20.125 -4.160156 20.148438 -4.707031 20.171875 -5.375 C 20.191406 -6.039062 20.203125 -6.851562 20.203125 -7.8125 L 20.203125 -13.5 C 20.203125 -15.082031 19.925781 -16.335938 19.375 -17.265625 C 18.832031 -18.203125 18.15625 -18.867188 17.34375 -19.265625 C 16.539062 -19.671875 15.71875 -19.875 14.875 -19.875 C 13.707031 -19.875 12.628906 -19.59375 11.640625 -19.03125 C 10.660156 -18.46875 9.804688 -17.660156 9.078125 -16.609375 L 9.078125 -8.703125 C 9.078125 -7.046875 9.101562 -5.722656 9.15625 -4.734375 C 9.207031 -3.753906 9.265625 -3.070312 9.328125 -2.6875 L 12.609375 -1.90625 L 12.453125 0 Z M 1.640625 0 "/></g></g></g><g fill="#3d3b3a" fill-opacity="1"><g transform="translate(963.785118, 422.999999)"><g><path d="M 5.375 0.421875 C 4.144531 0.421875 3.195312 -0.078125 2.53125 -1.078125 C 1.863281 -2.078125 1.53125 -3.367188 1.53125 -4.953125 C 1.53125 -7.421875 1.941406 -9.742188 2.765625 -11.921875 C 3.597656 -14.097656 4.695312 -16.03125 6.0625 -17.71875 C 7.4375 -19.40625 8.941406 -20.722656 10.578125 -21.671875 C 12.210938 -22.617188 13.835938 -23.09375 15.453125 -23.09375 C 16.367188 -23.09375 17.160156 -22.851562 17.828125 -22.375 C 18.492188 -21.90625 19.175781 -21.25 19.875 -20.40625 L 18.9375 -18.671875 C 18.375 -19.304688 17.703125 -19.769531 16.921875 -20.0625 C 16.148438 -20.363281 15.363281 -20.515625 14.5625 -20.515625 C 13.289062 -20.515625 12.128906 -20.082031 11.078125 -19.21875 C 10.023438 -18.363281 9.117188 -17.222656 8.359375 -15.796875 C 7.597656 -14.367188 7.015625 -12.800781 6.609375 -11.09375 C 6.210938 -9.394531 6.015625 -7.664062 6.015625 -5.90625 C 6.015625 -4.988281 6.109375 -4.273438 6.296875 -3.765625 C 6.492188 -3.253906 6.820312 -3 7.28125 -3 C 7.84375 -3 8.578125 -3.4375 9.484375 -4.3125 C 10.398438 -5.195312 11.410156 -6.429688 12.515625 -8.015625 C 13.628906 -9.597656 14.695312 -11.390625 15.71875 -13.390625 C 16.738281 -15.398438 17.617188 -17.53125 18.359375 -19.78125 L 18.609375 -20.828125 L 21.3125 -32.328125 L 17.1875 -32.859375 L 17.515625 -34.328125 L 25.46875 -36.59375 L 26.3125 -35.859375 C 26.03125 -34.835938 25.6875 -33.570312 25.28125 -32.0625 C 24.882812 -30.550781 24.484375 -28.953125 24.078125 -27.265625 C 23.671875 -25.578125 23.253906 -23.925781 22.828125 -22.3125 L 20.46875 -13.03125 C 19.90625 -10.675781 19.445312 -8.570312 19.09375 -6.71875 C 18.738281 -4.875 18.5625 -3.492188 18.5625 -2.578125 C 19.332031 -3.003906 20.066406 -3.539062 20.765625 -4.1875 C 21.472656 -4.84375 22.179688 -5.609375 22.890625 -6.484375 L 24.15625 -4.953125 C 23.269531 -3.898438 22.367188 -2.96875 21.453125 -2.15625 C 20.546875 -1.351562 19.671875 -0.722656 18.828125 -0.265625 C 17.984375 0.191406 17.207031 0.421875 16.5 0.421875 C 15.832031 0.421875 15.332031 0.21875 15 -0.1875 C 14.664062 -0.59375 14.5 -1.128906 14.5 -1.796875 C 14.5 -2.429688 14.585938 -3.273438 14.765625 -4.328125 C 14.941406 -5.378906 15.238281 -6.765625 15.65625 -8.484375 C 16.082031 -10.210938 16.664062 -12.394531 17.40625 -15.03125 L 17.984375 -15.03125 C 16.890625 -11.9375 15.59375 -9.238281 14.09375 -6.9375 C 12.601562 -4.632812 11.101562 -2.832031 9.59375 -1.53125 C 8.082031 -0.226562 6.675781 0.421875 5.375 0.421875 Z M 5.375 0.421875 "/></g></g></g><g fill="#3d3b3a" fill-opacity="1"><g transform="translate(989.197569, 422.999999)"><g><path d="M 8.859375 0.421875 C 7.554688 0.421875 6.351562 0.0976562 5.25 -0.546875 C 4.144531 -1.203125 3.273438 -2.132812 2.640625 -3.34375 C 2.003906 -4.5625 1.6875 -5.992188 1.6875 -7.640625 C 1.6875 -9.546875 2.003906 -11.410156 2.640625 -13.234375 C 3.273438 -15.066406 4.160156 -16.71875 5.296875 -18.1875 C 6.441406 -19.664062 7.769531 -20.851562 9.28125 -21.75 C 10.789062 -22.644531 12.410156 -23.09375 14.140625 -23.09375 C 15.472656 -23.09375 16.691406 -22.765625 17.796875 -22.109375 C 18.898438 -21.460938 19.773438 -20.539062 20.421875 -19.34375 C 21.078125 -18.15625 21.40625 -16.71875 21.40625 -15.03125 C 21.40625 -13.132812 21.078125 -11.257812 20.421875 -9.40625 C 19.773438 -7.5625 18.878906 -5.898438 17.734375 -4.421875 C 16.597656 -2.953125 15.265625 -1.773438 13.734375 -0.890625 C 12.203125 -0.015625 10.578125 0.421875 8.859375 0.421875 Z M 10.015625 -2.0625 C 11.078125 -2.0625 12.035156 -2.398438 12.890625 -3.078125 C 13.753906 -3.765625 14.492188 -4.707031 15.109375 -5.90625 C 15.722656 -7.101562 16.195312 -8.4375 16.53125 -9.90625 C 16.863281 -11.382812 17.03125 -12.898438 17.03125 -14.453125 C 17.03125 -16.378906 16.648438 -17.90625 15.890625 -19.03125 C 15.140625 -20.15625 14.203125 -20.71875 13.078125 -20.71875 C 12.023438 -20.71875 11.078125 -20.363281 10.234375 -19.65625 C 9.390625 -18.957031 8.660156 -18.007812 8.046875 -16.8125 C 7.429688 -15.625 6.957031 -14.289062 6.625 -12.8125 C 6.289062 -11.332031 6.125 -9.804688 6.125 -8.234375 C 6.125 -6.222656 6.5 -4.691406 7.25 -3.640625 C 8.007812 -2.585938 8.929688 -2.0625 10.015625 -2.0625 Z M 10.015625 -2.0625 "/></g></g></g><g fill="#3d3b3a" fill-opacity="1"><g transform="translate(1022.360291, 422.999999)"><g><path d="M 5.21875 0.421875 C 4.519531 0.421875 3.984375 0.21875 3.609375 -0.1875 C 3.242188 -0.59375 3.0625 -1.164062 3.0625 -1.90625 C 3.0625 -2.394531 3.203125 -3.234375 3.484375 -4.421875 C 3.765625 -5.617188 4.113281 -6.984375 4.53125 -8.515625 C 4.957031 -10.046875 5.378906 -11.582031 5.796875 -13.125 C 6.222656 -14.675781 6.582031 -16.078125 6.875 -17.328125 C 7.175781 -18.578125 7.328125 -19.484375 7.328125 -20.046875 C 6.585938 -19.648438 5.859375 -19.117188 5.140625 -18.453125 C 4.421875 -17.785156 3.707031 -16.960938 3 -15.984375 L 1.734375 -17.671875 C 2.617188 -18.753906 3.515625 -19.703125 4.421875 -20.515625 C 5.335938 -21.328125 6.21875 -21.957031 7.0625 -22.40625 C 7.90625 -22.863281 8.679688 -23.09375 9.390625 -23.09375 C 10.085938 -23.09375 10.617188 -22.878906 10.984375 -22.453125 C 11.359375 -22.035156 11.546875 -21.441406 11.546875 -20.671875 C 11.546875 -20.179688 11.40625 -19.328125 11.125 -18.109375 C 10.84375 -16.898438 10.488281 -15.519531 10.0625 -13.96875 C 9.644531 -12.425781 9.222656 -10.890625 8.796875 -9.359375 C 8.378906 -7.828125 8.019531 -6.445312 7.71875 -5.21875 C 7.425781 -3.988281 7.28125 -3.109375 7.28125 -2.578125 C 8.050781 -3.003906 8.785156 -3.539062 9.484375 -4.1875 C 10.191406 -4.84375 10.898438 -5.609375 11.609375 -6.484375 L 12.875 -4.953125 C 11.988281 -3.898438 11.085938 -2.96875 10.171875 -2.15625 C 9.265625 -1.351562 8.390625 -0.722656 7.546875 -0.265625 C 6.703125 0.191406 5.925781 0.421875 5.21875 0.421875 Z M 10.96875 -28.953125 C 10.257812 -28.953125 9.660156 -29.1875 9.171875 -29.65625 C 8.679688 -30.132812 8.4375 -30.726562 8.4375 -31.4375 C 8.4375 -32.207031 8.601562 -32.863281 8.9375 -33.40625 C 9.269531 -33.945312 9.71875 -34.375 10.28125 -34.6875 C 10.84375 -35.007812 11.421875 -35.171875 12.015625 -35.171875 C 12.722656 -35.171875 13.300781 -34.941406 13.75 -34.484375 C 14.207031 -34.023438 14.4375 -33.445312 14.4375 -32.75 C 14.4375 -31.976562 14.28125 -31.300781 13.96875 -30.71875 C 13.65625 -30.132812 13.234375 -29.691406 12.703125 -29.390625 C 12.171875 -29.097656 11.59375 -28.953125 10.96875 -28.953125 Z M 10.96875 -28.953125 "/></g></g></g><g fill="#3d3b3a" fill-opacity="1"><g transform="translate(1036.964542, 422.999999)"><g><path d="M 14.875 -5.859375 C 13.21875 -3.390625 11.613281 -1.722656 10.0625 -0.859375 C 8.519531 -0.00390625 7.171875 0.421875 6.015625 0.421875 C 4.890625 0.421875 4.007812 0.0976562 3.375 -0.546875 C 2.738281 -1.203125 2.421875 -2.054688 2.421875 -3.109375 C 2.421875 -3.492188 2.460938 -3.929688 2.546875 -4.421875 C 2.640625 -4.921875 2.757812 -5.519531 2.90625 -6.21875 L 6.171875 -19.9375 L 2.484375 -19.9375 L 2.75 -21.046875 L 10.921875 -27.265625 L 11.921875 -27.265625 L 10.390625 -21.203125 L 7.0625 -6.796875 C 6.925781 -6.171875 6.820312 -5.671875 6.75 -5.296875 C 6.675781 -4.929688 6.640625 -4.609375 6.640625 -4.328125 C 6.640625 -3.335938 7.082031 -2.84375 7.96875 -2.84375 C 8.53125 -2.84375 9.273438 -3.1875 10.203125 -3.875 C 11.140625 -4.5625 12.289062 -5.800781 13.65625 -7.59375 Z M 8.234375 -19.9375 L 8.8125 -22.578125 L 16.5 -22.578125 L 15.984375 -19.9375 Z M 8.234375 -19.9375 "/></g></g></g><g fill="#3d3b3a" fill-opacity="1"><g transform="translate(1052.886866, 422.999999)"><g><path d="M 4.265625 0.53125 C 3.316406 0.53125 2.535156 0.222656 1.921875 -0.390625 C 1.304688 -1.003906 1 -1.753906 1 -2.640625 C 1 -3.234375 1.140625 -3.765625 1.421875 -4.234375 C 1.703125 -4.710938 2.097656 -5.09375 2.609375 -5.375 C 3.117188 -5.65625 3.671875 -5.796875 4.265625 -5.796875 C 5.222656 -5.796875 6.007812 -5.5 6.625 -4.90625 C 7.238281 -4.3125 7.546875 -3.554688 7.546875 -2.640625 C 7.546875 -1.753906 7.238281 -1.003906 6.625 -0.390625 C 6.007812 0.222656 5.222656 0.53125 4.265625 0.53125 Z M 4.265625 0.53125 "/></g></g></g></svg>